<?xml version="1.0" encoding="utf-8"?>
<!-- Generator: Adobe Illustrator 25.4.1, SVG Export Plug-In . SVG Version: 6.00 Build 0)  -->
<svg version="1.1" id="레이어_1" xmlns="http://www.w3.org/2000/svg" xmlns:xlink="http://www.w3.org/1999/xlink" x="0px"
	 y="0px" viewBox="0 0 55.28 66" style="enable-background:new 0 0 55.28 66;" xml:space="preserve">
<style type="text/css">
	.st0{stroke:#000000;stroke-width:0.5;stroke-miterlimit:10;}
</style>
<g>
	<path class="st0" d="M42.2,19h-0.76v-2.28c0-1.26-1.02-2.28-2.28-2.28v-2.28c0-1.26-1.02-2.28-2.28-2.28h-1.52
		c-1.26,0-2.28,1.02-2.28,2.28v2.28H14.84c-1.26,0-2.28,1.02-2.28,2.28V19H11.8C9.7,19,8,20.7,8,22.8v3.04
		c0,0.42,0.34,0.76,0.76,0.76h1.59l0.37,3.85c-1.14,0.25-1.89,1.32-1.77,2.47l1.95,18.24c0.11,1.06,0.94,1.89,1.98,2.02l0.18,1.9
		c0.19,1.96,1.81,3.44,3.78,3.44h20.31c1.97,0,3.6-1.48,3.78-3.44l0.18-1.9c1.04-0.13,1.87-0.95,1.98-2.02l1.95-18.24
		c0.12-1.15-0.63-2.21-1.77-2.47l0.37-3.85h1.59c0.42,0,0.76-0.34,0.76-0.76V22.8C46,20.7,44.3,19,42.2,19L42.2,19z M34.6,12.16
		c0-0.42,0.34-0.76,0.76-0.76h1.52c0.42,0,0.76,0.34,0.76,0.76v2.28H34.6V12.16z M14.08,16.72c0-0.42,0.34-0.76,0.76-0.76h24.32
		c0.42,0,0.76,0.34,0.76,0.76V19H14.08V16.72z M37.16,57H16.84c-1.18,0-2.16-0.89-2.27-2.06l-0.17-1.74h25.18l-0.17,1.74
		C39.31,56.11,38.34,57,37.16,57L37.16,57z M43.35,32.17c0.15,0.16,0.21,0.37,0.19,0.59L41.59,51c-0.04,0.39-0.37,0.68-0.76,0.68
		c-6.65,0-21.54,0-27.67,0c-0.39,0-0.71-0.29-0.76-0.68l-1.95-18.24c-0.05-0.45,0.3-0.84,0.76-0.84c0.5,0,31.44,0,31.24,0
		C42.81,31.92,43.09,31.88,43.35,32.17L43.35,32.17z M41.76,30.4H12.24l-0.36-3.8h30.25L41.76,30.4z M44.48,25.08
		c-1.42,0-33.03,0-34.96,0V22.8c0-1.26,1.02-2.28,2.28-2.28h30.4c1.26,0,2.28,1.02,2.28,2.28V25.08z M44.48,25.08"/>
	<path class="st0" d="M32.37,36.42c-2.62-2.56-6.97-1.62-9.67,1.08c-2.74,2.74-3.62,7.09-1.1,9.65c0.78,0.85,2.2,1.53,3.88,1.53
		C31.73,48.68,36.48,40.54,32.37,36.42L32.37,36.42z M21.67,42.65c0.53-4.26,5.56-7.44,8.76-5.78l-1.71,0.95
		c-1.51,0.84-2.62,2.29-3.04,3.97c-0.27,1.1-0.93,2.06-1.85,2.72l-1.53,1.1C21.75,44.82,21.53,43.79,21.67,42.65L21.67,42.65z
		 M32.33,40.95c-0.53,4.27-5.67,7.55-8.89,5.71l1.27-0.91c1.21-0.87,2.08-2.14,2.44-3.59c0.32-1.27,1.16-2.37,2.31-3.01l2.2-1.22
		C32.24,38.73,32.47,39.78,32.33,40.95L32.33,40.95z M32.33,40.95"/>
</g>
</svg>
