<?xml version="1.0" encoding="utf-8"?>
<!-- Generator: Adobe Illustrator 25.4.1, SVG Export Plug-In . SVG Version: 6.00 Build 0)  -->
<svg version="1.1" id="레이어_1" xmlns="http://www.w3.org/2000/svg" xmlns:xlink="http://www.w3.org/1999/xlink" x="0px"
	 y="0px" viewBox="0 0 74.28 124" style="enable-background:new 0 0 74.28 124;" xml:space="preserve">
<g>
	<path d="M53.83,63.62c0-2.06-1.24-3.91-3.14-4.7c-1.9-0.79-4.09-0.35-5.54,1.1c-1.45,1.45-1.89,3.64-1.1,5.54
		c0.79,1.9,2.64,3.14,4.7,3.14C51.56,68.7,53.83,66.43,53.83,63.62L53.83,63.62z M47.06,63.62c0-0.69,0.41-1.3,1.05-1.57
		c0.63-0.26,1.36-0.12,1.85,0.37c0.48,0.48,0.63,1.21,0.37,1.85c-0.26,0.63-0.88,1.05-1.57,1.05
		C47.81,65.31,47.06,64.56,47.06,63.62L47.06,63.62z M47.06,63.62"/>
	<path d="M29.42,102.87c0,0.94-0.76,1.69-1.69,1.69c-0.94,0-1.69-0.76-1.69-1.69s0.76-1.69,1.69-1.69
		C28.66,101.18,29.42,101.94,29.42,102.87L29.42,102.87z M29.42,102.87"/>
	<path d="M58.22,106.26c0,0.94-0.76,1.69-1.69,1.69c-0.94,0-1.69-0.76-1.69-1.69c0-0.94,0.76-1.69,1.69-1.69
		C57.46,104.57,58.22,105.33,58.22,106.26L58.22,106.26z M58.22,106.26"/>
	<path d="M56.53,92.71c0,0.94-0.76,1.69-1.69,1.69c-0.94,0-1.69-0.76-1.69-1.69s0.76-1.69,1.69-1.69
		C55.77,91.01,56.53,91.77,56.53,92.71L56.53,92.71z M56.53,92.71"/>
	<path d="M26.03,90.45h3.39c0.94,0,1.69-0.76,1.69-1.69v-3.39c0-2.81-2.28-5.08-5.08-5.08h-3.39c-0.94,0-1.69,0.76-1.69,1.69v3.39
		C20.95,88.17,23.22,90.45,26.03,90.45L26.03,90.45z M24.33,83.67h1.69c0.94,0,1.69,0.76,1.69,1.69v1.69h-1.69
		c-0.94,0-1.69-0.76-1.69-1.69V83.67z M24.33,83.67"/>
	<path d="M56.53,72.37h-3.39c-2.81,0-5.08,2.28-5.08,5.08v3.39c0,0.94,0.76,1.69,1.69,1.69h3.39c2.81,0,5.08-2.28,5.08-5.08v-3.39
		C58.22,73.13,57.46,72.37,56.53,72.37L56.53,72.37z M54.83,77.46c0,0.94-0.76,1.69-1.69,1.69h-1.69v-1.69
		c0-0.94,0.76-1.69,1.69-1.69h1.69V77.46z M54.83,77.46"/>
	<path d="M61.61,52.22v-3.56c0.94,0,1.69-0.76,1.69-1.69v-6.78c0-0.94-0.76-1.69-1.69-1.69H37.24l-4.47-22.36
		c-0.16-0.79-0.85-1.36-1.66-1.36h-6.78c-0.51,0-0.99,0.23-1.31,0.62c-0.32,0.39-0.45,0.91-0.35,1.41l4.34,21.7h-9.45
		c-0.94,0-1.69,0.76-1.69,1.69v6.78c0,0.94,0.76,1.69,1.69,1.69v3.56c-2.17,2.22-3.39,5.19-3.39,8.3v47.44
		c0.01,4.68,3.79,8.47,8.47,8.47h33.89c4.68-0.01,8.47-3.79,8.47-8.47V60.51C65,57.41,63.78,54.43,61.61,52.22L61.61,52.22z
		 M32.78,33.42l1.01,5.06h-3.32l-0.58-2.89L32.78,33.42z M32.04,29.74l-2.89,2.17l-0.96-4.79l2.89-2.17L32.04,29.74z M26.4,18.15
		h3.32l0.62,3.12l-2.89,2.17L26.4,18.15z M19.25,41.87h40.67v3.39H19.25V41.87z M41.55,93.88L40.57,89l2.93-1.95l0.98,4.88
		L41.55,93.88z M45.2,95.52l0.79,3.96h-3.32l-0.4-2.01L45.2,95.52z M39.85,85.41l-0.98-4.88l2.93-1.95l0.98,4.88L39.85,85.41z
		 M38.16,76.94l-0.98-4.88l2.93-1.95l0.98,4.88L38.16,76.94z M37.18,55.43l0.52,2.61l-2.93,1.95l-0.91-4.56H37.18z M33.18,52.04
		l-0.68-3.39h3.32l0.68,3.39H33.18z M38.42,61.63l0.98,4.88l-2.93,1.95l-0.98-4.88L38.42,61.63z M39.96,52.04l-0.68-3.39h18.94v3.39
		H39.96z M29.72,52.04h-8.78v-3.39h8.1L29.72,52.04z M61.61,107.96c0,2.81-2.28,5.08-5.08,5.08H22.64c-2.81,0-5.08-2.28-5.08-5.08
		V60.51c0-1.83,0.6-3.62,1.7-5.08H30.4l9.22,46.08c0.16,0.79,0.85,1.36,1.66,1.36h6.78c0.51,0,0.99-0.23,1.31-0.62
		c0.32-0.39,0.45-0.91,0.35-1.41l-9.08-45.42h19.28c1.1,1.47,1.7,3.25,1.7,5.08V107.96z M61.61,107.96"/>
</g>
</svg>
