<?xml version="1.0" encoding="iso-8859-1"?>
<!-- Generator: Adobe Illustrator 25.4.1, SVG Export Plug-In . SVG Version: 6.00 Build 0)  -->
<svg version="1.1" id="&#xB808;&#xC774;&#xC5B4;_1" xmlns="http://www.w3.org/2000/svg" xmlns:xlink="http://www.w3.org/1999/xlink"
	 x="0px" y="0px" viewBox="0 0 92.276 146" style="enable-background:new 0 0 92.276 146;" xml:space="preserve">
<g>
	<g>
		<defs>
			<rect id="SVGID_1_" x="9.713" y="8.161" width="70.113" height="131.013"/>
		</defs>
		<clipPath id="SVGID_00000152252734667122629270000012585124094539004849_">
			<use xlink:href="#SVGID_1_"  style="overflow:visible;"/>
		</clipPath>
		<path style="clip-path:url(#SVGID_00000152252734667122629270000012585124094539004849_);" d="M11.897,67.116h2.373l6.361,70.071
			c0.102,1.129,1.05,1.991,2.184,1.987h43.67c1.134,0.005,2.082-0.859,2.184-1.987l6.36-70.071h2.374
			c1.205,0,2.184-0.977,2.184-2.183v-8.734c0-1.206-0.979-2.184-2.184-2.184h-0.101C76.264,39.339,65.605,27.136,51.2,24.136V10.345
			c0-1.206-0.978-2.184-2.183-2.184h-8.734c-1.206,0-2.184,0.977-2.184,2.184v13.791c-14.405,3.001-25.064,15.203-26.102,29.879
			h-0.1c-1.206,0-2.184,0.978-2.184,2.184v8.734C9.713,66.139,10.69,67.116,11.897,67.116L11.897,67.116z M64.492,134.807H24.808
			l-0.398-4.367h35.525v-4.367H24.013L22.935,114.2l5.311,2.363c7.503,3.361,16.321,1.418,21.717-4.784
			c3.806-4.367,9.866-6.013,15.359-4.173l1.594,0.533L64.492,134.807z M67.331,103.669l-0.619-0.205
			c-7.162-2.401-15.064-0.256-20.029,5.437c-4.137,4.765-10.907,6.256-16.662,3.671l-7.538-3.35l-3.817-42.106h51.991
			L67.331,103.669z M75.219,62.749h-61.14v-4.367h61.14V62.749z M72.935,54.015H51.2V28.574
			C63.177,31.473,71.943,41.732,72.935,54.015L72.935,54.015z M42.466,12.528h4.367v41.487h-4.367V12.528z M38.099,28.574v25.441
			H16.365C17.358,41.732,26.122,31.474,38.099,28.574L38.099,28.574z M38.099,28.574"/>
	</g>
	<path d="M24.715,96.178l9.265,9.263c0.853,0.853,2.235,0.853,3.088,0l9.263-9.263c0.853-0.853,0.853-2.235,0-3.088l-9.263-9.265
		c-0.853-0.853-2.235-0.853-3.088,0l-9.265,9.265C23.862,93.943,23.862,95.326,24.715,96.178L24.715,96.178z M35.524,88.458
		l6.175,6.177l-6.175,6.175l-6.177-6.175L35.524,88.458z M35.524,88.458"/>
	<path d="M52.435,95.655c0.853,0.853,2.235,0.853,3.088,0l9.265-9.263c0.853-0.853,0.853-2.234,0-3.088l-9.265-9.264
		c-0.866-0.82-2.221-0.82-3.088,0l-9.263,9.264c-0.852,0.853-0.852,2.235,0,3.088L52.435,95.655z M53.98,78.671l6.177,6.177
		l-6.177,6.175l-6.175-6.175L53.98,78.671z M51.583,80.714"/>
</g>
</svg>
