<?xml version="1.0" encoding="utf-8"?>
<!-- Generator: Adobe Illustrator 25.4.1, SVG Export Plug-In . SVG Version: 6.00 Build 0)  -->
<svg version="1.1" id="레이어_1" xmlns="http://www.w3.org/2000/svg" xmlns:xlink="http://www.w3.org/1999/xlink" x="0px"
	 y="0px" viewBox="0 0 97.28 85" style="enable-background:new 0 0 97.28 85;" xml:space="preserve">
<style type="text/css">
	.st0{clip-path:url(#SVGID_00000178198272043519522320000004123660029368415918_);}
</style>
<g>
	<g>
		<defs>
			<rect id="SVGID_1_" x="8.21" y="-7" width="75.79" height="76"/>
		</defs>
		<clipPath id="SVGID_00000121994275480421415920000004822457417843151003_">
			<use xlink:href="#SVGID_1_"  style="overflow:visible;"/>
		</clipPath>
		<path style="clip-path:url(#SVGID_00000121994275480421415920000004822457417843151003_);" d="M83.88,59.62
			c-0.21-0.44-0.65-0.73-1.14-0.73H68.82c1.23-1.51,2.18-3.21,2.83-5.05h6.03c2.3,0,4.23-1.72,4.48-4.01l1.81-16.25
			c0.14-1.27-0.27-2.55-1.12-3.5c-0.85-0.95-2.08-1.5-3.36-1.5h-6.86v-2.53c0-0.7-0.57-1.26-1.26-1.26h-24v-1.26
			c0-4.18-3.4-7.58-7.58-7.58c-4.18,0-7.58,3.4-7.58,7.58v1.26H20.84c-0.7,0-1.26,0.57-1.26,1.26v22.09c0,3.95,1.37,7.74,3.82,10.76
			H9.47c-0.49,0-0.94,0.28-1.14,0.73c-0.21,0.44-0.14,0.97,0.17,1.34C12.76,66.07,19.01,69,25.66,69h40.9
			c6.65,0,12.9-2.93,17.15-8.03C84.02,60.59,84.09,60.07,83.88,59.62L83.88,59.62z M72.63,36.16h2.9c0.29,0,0.57,0.12,0.76,0.34
			c0.2,0.22,0.29,0.5,0.26,0.79l-0.81,8.05c-0.05,0.53-0.49,0.93-1.02,0.93h-2.1V36.16z M72.62,48.79h2.11
			c1.83,0,3.35-1.38,3.54-3.2l0.81-8.05c0.1-1-0.23-2-0.9-2.74c-0.67-0.74-1.63-1.17-2.64-1.17h-2.9v-2.53h6.86
			c0.57,0,1.1,0.23,1.48,0.66c0.38,0.43,0.56,0.97,0.49,1.54l-1.8,16.25c-0.11,1-0.96,1.76-1.97,1.76h-5.35
			C72.49,50.48,72.59,49.64,72.62,48.79L72.62,48.79z M34.74,23.53c0-2.79,2.27-5.05,5.05-5.05c2.79,0,5.05,2.27,5.05,5.05v1.26
			H34.74V23.53z M37.54,38.68l0.63,2.53h-9.4l0.63-2.53H37.54z M38.53,43.74v10.11H28.42V43.74H38.53z M22.11,48.14V27.32h10.11
			v8.84h-3.79c-0.58,0-1.08,0.39-1.23,0.96l-1.26,5.05c-0.03,0.1-0.04,0.2-0.04,0.31v12.63c0,0.7,0.57,1.26,1.26,1.26h12.63
			c0.7,0,1.26-0.57,1.26-1.26V42.47c0-0.1-0.01-0.21-0.04-0.31l-1.26-5.05c-0.14-0.56-0.65-0.96-1.23-0.96h-3.79v-8.84h35.37v20.82
			c0,1.39-0.2,2.76-0.58,4.09c-0.75,2.57-2.19,4.86-4.17,6.67H26.86C23.83,56.14,22.11,52.25,22.11,48.14L22.11,48.14z M66.56,66.47
			h-40.9c-4.93,0-9.61-1.81-13.22-5.05h67.33C76.16,64.66,71.48,66.47,66.56,66.47L66.56,66.47z M66.56,66.47"/>
	</g>
</g>
</svg>
