<?xml version="1.0" encoding="iso-8859-1"?>
<!-- Generator: Adobe Illustrator 25.4.1, SVG Export Plug-In . SVG Version: 6.00 Build 0)  -->
<svg version="1.1" id="&#xB808;&#xC774;&#xC5B4;_1" xmlns="http://www.w3.org/2000/svg" xmlns:xlink="http://www.w3.org/1999/xlink"
	 x="0px" y="0px" viewBox="0 0 60.58 81.174" style="enable-background:new 0 0 60.58 81.174;" xml:space="preserve">
<g>
	<g>
		<defs>
			<rect id="SVGID_1_" x="6.065" y="2.004" width="46.978" height="76.648"/>
		</defs>
		<clipPath id="SVGID_00000137107833520596748200000010483455558313981062_">
			<use xlink:href="#SVGID_1_"  style="overflow:visible;"/>
		</clipPath>
		
			<path style="clip-path:url(#SVGID_00000137107833520596748200000010483455558313981062_);stroke:#000000;stroke-width:0.2;stroke-miterlimit:10;" d="
			M12.246,34.147c0.731,0,1.335,0.571,1.375,1.301l2.077,37.365c0.181,3.276,2.89,5.839,6.171,5.839h15.37
			c3.281,0,5.99-2.563,6.171-5.839l2.077-37.365c0.04-0.73,0.644-1.301,1.375-1.301c2.048,0,3.709-1.66,3.709-3.709v-1.464
			c1.477-0.522,2.466-1.915,2.473-3.481v-4.945c-0.006-1.566-0.996-2.959-2.473-3.481V5.713c0-2.048-1.66-3.709-3.709-3.709H40.68
			c-2.048,0-3.709,1.66-3.709,3.709v3.762l-23.704,1.03c-2.65,0.11-4.737,2.293-4.73,4.945v1.62
			c-1.475,0.521-2.464,1.913-2.473,3.478v4.945c0.006,1.566,0.996,2.959,2.473,3.481v1.464
			C8.538,32.487,10.198,34.147,12.246,34.147L12.246,34.147z M40.941,72.676c-0.109,1.965-1.734,3.504-3.702,3.504h-15.37
			c-1.968,0-3.594-1.538-3.702-3.504l-1.835-33.008l1.673-0.837c2.606-1.276,5.656-1.276,8.263,0l0.522,0.261
			c3.296,1.648,7.177,1.648,10.473,0l0.522-0.261c1.283-0.64,2.697-0.974,4.131-0.975h0.959L40.941,72.676z M46.862,31.675
			c-2.043,0-3.73,1.596-3.843,3.636v0.073h-1.102c-1.817,0.002-3.61,0.425-5.236,1.236l-0.522,0.261
			c-2.606,1.276-5.656,1.276-8.263,0l-0.522-0.261c-3.303-1.618-7.17-1.618-10.473,0l-0.717,0.358l-0.093-1.666
			c-0.113-2.04-1.8-3.636-3.843-3.637c-0.682,0-1.236-0.554-1.236-1.236v-1.236h37.088v1.236
			C48.098,31.121,47.544,31.675,46.862,31.675L46.862,31.675z M40.68,4.477h6.181c0.682,0,1.236,0.554,1.236,1.236v3.709h-8.654
			V5.713C39.444,5.031,39.998,4.477,40.68,4.477L40.68,4.477z M13.375,12.975l24.833-1.08h9.89v4.945H11.01v-1.393
			C11.009,14.122,12.053,13.032,13.375,12.975L13.375,12.975z M8.538,20.548c0-0.682,0.554-1.236,1.236-1.236h39.56
			c0.682,0,1.236,0.554,1.236,1.236v4.945c0,0.682-0.554,1.236-1.236,1.236H9.774c-0.682,0-1.236-0.554-1.236-1.236V20.548z
			 M8.538,20.548"/>
	</g>
</g>
<path style="stroke:#000000;stroke-width:0.25;stroke-miterlimit:10;" d="M22.235,58.826h0.002c0.253,0.005,0.503-0.045,0.735-0.147
	v0.234c0,1.075,0.892,1.905,1.966,1.905h0.002c0.508,0.008,0.999-0.19,1.36-0.548c0.361-0.359,0.562-0.848,0.557-1.357v-1.88h5.977
	v1.88c0,1.075,0.915,1.905,1.99,1.905h0.002c1.075,0,1.993-0.831,1.993-1.905v-0.234c0.222,0.102,0.464,0.152,0.708,0.147h0.002
	c1.081,0.004,1.963-0.863,1.98-1.944v-3.315c0.001-0.516-0.203-1.011-0.568-1.376c-0.364-0.366-0.859-0.571-1.376-0.572
	c-0.256-0.004-0.511,0.048-0.746,0.152v-0.234c0-1.075-0.917-1.949-1.993-1.949c-1.074,0-1.991,0.874-1.991,1.949v1.81h-5.977v-1.81
	c0-1.073-0.87-1.943-1.943-1.943c-1.073,0-1.943,0.87-1.943,1.943v0.234c-0.235-0.104-0.491-0.156-0.748-0.152
	c-0.516,0.001-1.01,0.207-1.374,0.572c-0.364,0.366-0.568,0.861-0.567,1.376v3.315C20.286,57.958,21.159,58.828,22.235,58.826
	L22.235,58.826z M36.819,53.568c0-0.412,0.335-0.747,0.747-0.747c0.412,0,0.747,0.335,0.747,0.747v3.315
	c-0.016,0.421-0.363,0.752-0.784,0.748h-0.002c-0.416,0-0.708-0.333-0.708-0.748V53.568z M34.029,51.537
	c0-0.416,0.381-0.753,0.798-0.753c0.415,0,0.796,0.338,0.796,0.753v7.376c0,0.415-0.383,0.71-0.798,0.71h-0.002
	c-0.415,0-0.794-0.295-0.794-0.71V51.537z M26.857,54.543h5.977v1.295h-5.977V54.543z M24.167,56.882v-5.345
	c0-0.413,0.335-0.747,0.747-0.747c0.412,0,0.747,0.334,0.747,0.747v7.376c0.011,0.401-0.321,0.727-0.721,0.71h-0.002
	c-0.415,0-0.771-0.295-0.771-0.71V56.882z M21.478,53.568c0-0.412,0.335-0.747,0.747-0.747c0.412,0,0.747,0.335,0.747,0.747v3.315
	c0.004,0.197-0.072,0.388-0.21,0.528c-0.139,0.141-0.327,0.22-0.525,0.22h-0.002c-0.416,0.002-0.754-0.333-0.757-0.748
	L21.478,53.568z M21.478,53.568"/>
</svg>
